<?xml version="1.0" encoding="iso-8859-1"?>
<!-- Generator: Adobe Illustrator 19.0.0, SVG Export Plug-In . SVG Version: 6.00 Build 0)  -->
<svg xmlns="http://www.w3.org/2000/svg" xmlns:xlink="http://www.w3.org/1999/xlink" version="1.1" id="Capa_1" x="0px" y="0px" viewBox="0 0 455.069 455.069" style="enable-background:new 0 0 455.069 455.069;" xml:space="preserve" width="512" height="512">
<g>
	<path style="fill:#FF8882;" d="M175.224,215.095c2.56-7.88-1.75-16.35-9.63-18.91c-7.88-2.56-16.34,1.76-18.9,9.63   c-2.56,7.88,1.75,16.35,9.63,18.91C164.204,227.285,172.664,222.965,175.224,215.095z M195.204,276.585   c-6.7-4.87-16.08-3.39-20.95,3.32c-4.87,6.7-3.38,16.08,3.32,20.95c6.7,4.87,16.08,3.38,20.95-3.32   C203.394,290.835,201.904,281.455,195.204,276.585z M227.534,177.085c8.28,0,15-6.71,15-15c0-8.28-6.72-15-15-15s-15,6.72-15,15   C212.534,170.375,219.254,177.085,227.534,177.085z M259.864,276.585c-6.7,4.87-8.19,14.25-3.32,20.95   c4.87,6.7,14.25,8.19,20.95,3.32c6.7-4.87,8.19-14.25,3.32-20.95C275.944,273.195,266.564,271.715,259.864,276.585z    M241.804,227.455c-1.95-6.02-7.61-10.37-14.27-10.37s-12.32,4.35-14.27,10.37c-0.47,1.46-0.73,3.01-0.73,4.63   c0,8.29,6.72,15,15,15s15-6.71,15-15C242.534,230.465,242.274,228.915,241.804,227.455z M279.844,215.095   c2.56,7.87,11.02,12.19,18.9,9.63s12.19-11.03,9.63-18.91c-2.56-7.87-11.02-12.19-18.9-9.63   C281.594,198.745,277.284,207.215,279.844,215.095z M454.764,212.905c4.2,39.91-35.69,61.43-81.81,66.43   c34.37,31.15,53.99,72.01,27.14,101.83c-12.61,14-29.29,22.13-46.64,24.24c-7.36,15.84-20.25,29.2-37.46,36.86   c-36.66,16.33-69.45-14.96-88.46-57.28c-19.01,42.32-51.8,73.61-88.46,57.28c-17.21-7.66-30.1-21.02-37.46-36.86   c-17.35-2.11-34.03-10.24-46.64-24.24c-26.85-29.82-7.23-70.68,27.14-101.83c-46.12-5-86.01-26.52-81.81-66.43   c1.97-18.74,10.69-35.12,23.48-47.02c-3.35-17.15-0.78-35.53,8.64-51.85c20.07-34.75,64.99-28.71,105.24-5.65   c-9.49-45.4-1.36-89.99,37.89-98.34c18.43-3.91,36.71-0.68,51.98,7.81c15.27-8.49,33.55-11.72,51.98-7.81   c39.25,8.35,47.38,52.94,37.89,98.34c40.25-23.06,85.17-29.1,105.24,5.65c9.42,16.32,11.99,34.7,8.64,51.85   C444.074,177.785,452.794,194.165,454.764,212.905z"/>
	<circle style="fill:#FF382E;" cx="297.163" cy="393.131" r="7.5"/>
	<circle style="fill:#FF382E;" cx="267.163" cy="363.131" r="7.5"/>
	<circle style="fill:#FF382E;" cx="402.215" cy="215.629" r="7.5"/>
	<path style="fill:#FFFFFF;" d="M289.292,219.905l-4.635-14.266l-49.623,16.124v-52.177h-15v52.177l-49.624-16.124l-4.635,14.266   l49.624,16.124l-30.669,42.212l12.135,8.816l30.669-42.211l30.669,42.211l12.135-8.816l-30.669-42.212L289.292,219.905z"/>
	<circle style="fill:#FFC743;" cx="227.534" cy="232.086" r="15"/>
	<circle style="fill:#FF382E;" cx="227.534" cy="162.086" r="15"/>
	<circle style="fill:#FF382E;" cx="160.96" cy="210.455" r="15"/>
	<circle style="fill:#FF382E;" cx="186.389" cy="288.717" r="15"/>
	<circle style="fill:#FF382E;" cx="268.679" cy="288.717" r="15"/>
	<circle style="fill:#FF382E;" cx="294.108" cy="210.455" r="15"/>
</g>















</svg>
