<?xml version="1.0" encoding="iso-8859-1"?>
<!-- Generator: Adobe Illustrator 19.0.0, SVG Export Plug-In . SVG Version: 6.00 Build 0)  -->
<svg xmlns="http://www.w3.org/2000/svg" xmlns:xlink="http://www.w3.org/1999/xlink" version="1.1" id="Capa_1" x="0px" y="0px" viewBox="0 0 455 455" style="enable-background:new 0 0 455 455;" xml:space="preserve" width="512" height="512">
<g>
	<path style="fill:#DE2F1B;" d="M116.54,393.75l4.95,41.39c1.3,10.92,11.37,19.86,22.37,19.86h167.28c11,0,21.07-8.94,22.37-19.86   l4.95-41.39H116.54z"/>
	<circle style="fill:#FF382E;" cx="227.5" cy="212.5" r="212.5"/>
	<path style="fill:#DE2F1B;" d="M185,212.5h-85C100,329.86,157.084,425,227.5,425C204.028,425,185,329.86,185,212.5z"/>
	<path style="fill:#FF382E;" d="M270,212.5h-85c0,117.36,19.028,212.5,42.5,212.5S270,329.86,270,212.5z"/>
	<path style="fill:#DE2F1B;" d="M355,212.5h-85c0,117.36-19.028,212.5-42.5,212.5C297.916,425,355,329.86,355,212.5z"/>
	<path style="fill:#FFFFFF;" d="M377.889,205.572c5.06,21.41-8.8,38.928-30.8,38.928H107.912c-22,0-35.86-17.517-30.8-38.928   l21.6-91.4c5.06-21.41,27.2-38.928,49.2-38.928h159.177c22,0,44.14,17.517,49.2,38.928L377.889,205.572z"/>
	<path style="fill:#FFB914;" d="M154.85,135.24c19.3,0,35,15.71,35,35c0,19.3-15.7,35-35,35s-35-15.7-35-35   C119.85,150.95,135.55,135.24,154.85,135.24z"/>
	<path style="fill:#FFB914;" d="M300.15,135.24c19.3,0,35,15.71,35,35c0,19.3-15.7,35-35,35c-19.3,0-35-15.7-35-35   C265.15,150.95,280.85,135.24,300.15,135.24z"/>
	<path style="fill:#3F3736;" d="M212.506,147.744c-2.704,0-5.315-1.467-6.654-4.028c-9.981-19.104-29.525-30.971-51.005-30.971   c-4.142,0-7.5-3.357-7.5-7.5s3.358-7.5,7.5-7.5c27.084,0,51.723,14.953,64.3,39.023c1.918,3.672,0.497,8.203-3.174,10.121   C214.864,147.469,213.676,147.744,212.506,147.744z"/>
	<circle style="fill:#3F3736;" cx="154.848" cy="170.245" r="5"/>
	<path style="fill:#3F3736;" d="M242.494,147.744c-1.17,0-2.358-0.275-3.467-0.854c-3.671-1.918-5.092-6.449-3.174-10.121   c12.577-24.07,37.215-39.023,64.3-39.023c4.142,0,7.5,3.357,7.5,7.5s-3.358,7.5-7.5,7.5c-21.479,0-41.023,11.867-51.005,30.971   C247.809,146.277,245.197,147.744,242.494,147.744z"/>
	<circle style="fill:#3F3736;" cx="300.152" cy="170.245" r="5"/>
</g>















</svg>
