<?xml version="1.0" encoding="iso-8859-1"?>
<!-- Generator: Adobe Illustrator 19.0.0, SVG Export Plug-In . SVG Version: 6.00 Build 0)  -->
<svg xmlns="http://www.w3.org/2000/svg" xmlns:xlink="http://www.w3.org/1999/xlink" version="1.1" id="Capa_1" x="0px" y="0px" viewBox="0 0 455 455" style="enable-background:new 0 0 455 455;" xml:space="preserve" width="512" height="512">
<g>
	<path style="fill:#FFB8B4;" d="M287.5,310.84l-60,107.33l-60-107.33c18.47-7.7,38.74-11.95,60-11.95S269.03,303.14,287.5,310.84z"/>
	<path style="fill:#FFE3A1;" d="M305.55,99.35h-156.1c0,0,0,49.55,0,81.49c0,43.11,34.94,78.05,78.05,78.05   c43.11,0,78.05-34.94,78.05-78.05C305.55,148.9,305.55,99.35,305.55,99.35z"/>
	<path style="fill:#3F3736;" d="M227.5,0c-48.02,0-86.95,38.93-86.95,86.95c0,8.73,1.28,17.16,3.68,25.11   c-15.47,18.7-24.78,42.67-24.78,68.78v26.66c0,8.28,6.71,15,15,15c8.28,0,15-6.72,15-15v-26.66c0-31.94,19.18-59.4,46.66-71.49   h62.78c8.434,3.712,16.083,8.878,22.64,15.173l29.229-12.463c2.41-7.95,3.69-16.38,3.69-25.11C314.45,38.93,275.52,0,227.5,0z"/>
	<path style="fill:#FF8882;" d="M167.5,310.84c-56.44,23.51-96.11,79.2-96.11,144.16h70l110.81-35L167.5,310.84z"/>
	<path style="fill:#FF382E;" d="M167.5,310.84l60,77.33l0,31.83l-86.11,35h-70C71.39,390.04,111.06,334.35,167.5,310.84z"/>
	<path style="fill:#FF8882;" d="M287.5,310.84L202.8,420l110.81,35h70C383.61,390.04,343.94,334.35,287.5,310.84z"/>
	<path style="fill:#655F5E;" d="M310.76,112.06c-12.21-14.77-28.29-26.26-46.66-32.89l-25.21,30.18h20   c27.47,12.09,46.66,39.55,46.66,71.49v26.66c0,8.28,6.72,15,15,15c8.29,0,15-6.72,15-15v-26.66   C335.55,154.73,326.24,130.76,310.76,112.06z"/>
	<path style="fill:#3F3736;" d="M207.799,194.341c-3.628,0-6.655-2.577-7.35-6h-9.92c-4.143,0-7.5-3.357-7.5-7.5s3.357-7.5,7.5-7.5   h17.27c4.143,0,7.5,3.357,7.5,7.5v6C215.299,190.983,211.941,194.341,207.799,194.341z"/>
	<path style="fill:#3F3736;" d="M247.201,194.341c-4.143,0-7.5-3.357-7.5-7.5v-6c0-4.143,3.357-7.5,7.5-7.5h17.27   c4.143,0,7.5,3.357,7.5,7.5s-3.357,7.5-7.5,7.5h-9.92C253.856,191.764,250.829,194.341,247.201,194.341z"/>
	<path style="fill:#FF382E;" d="M258.89,109.35c-3.7,7.99-12.12,13.82-21.01,13.82h-20.76c-8.89,0-17.31-5.83-21.01-13.82   c-0.88-1.89-1.5-3.9-1.79-5.99l-3.42-24.19l-0.98-6.96c-1.54-10.89,6.2-19.8,17.2-19.8h40.76c11,0,18.74,8.91,17.2,19.8l-0.98,6.96   l-3.42,24.19C260.39,105.45,259.77,107.46,258.89,109.35z"/>
	<rect x="141.39" y="420" style="fill:#FF382E;" width="172.22" height="35"/>
</g>















</svg>
