<?xml version="1.0" encoding="iso-8859-1"?>
<!-- Generator: Adobe Illustrator 19.0.0, SVG Export Plug-In . SVG Version: 6.00 Build 0)  -->
<svg xmlns="http://www.w3.org/2000/svg" xmlns:xlink="http://www.w3.org/1999/xlink" version="1.1" id="Capa_1" x="0px" y="0px" viewBox="0 0 455 455" style="enable-background:new 0 0 455 455;" xml:space="preserve" width="512" height="512">
<g>
	<path style="fill:#FFBC99;" d="M455,131.2v274.25c0,27.37-22.18,49.55-49.55,49.55h-113.4c-27.37,0-49.55-22.18-49.55-49.55V131.2   c0-27.36,22.18-49.54,49.55-49.54h113.4C432.82,81.66,455,103.84,455,131.2z"/>
	<path style="fill:#FFBC99;" d="M212.5,49.55V323.8c0,27.36-22.18,49.54-49.55,49.54H49.55C22.18,373.34,0,351.16,0,323.8V49.55   C0,22.18,22.18,0,49.55,0h113.4C190.32,0,212.5,22.18,212.5,49.55z"/>
	<path style="fill:#68E1F2;" d="M106.248,42.538v43.876c4.017,5.227,8.303,11.405,12.573,18.573   c15.362,25.786,33.674,70.087,33.674,134.708c0,8.284,6.716,15,15,15s15-6.716,15-15   C182.496,114.833,121.365,55.338,106.248,42.538z"/>
	<path style="fill:#19ABBF;" d="M30,239.695c0,8.284,6.716,15,15,15s15-6.716,15-15c0-64.621,18.312-108.922,33.674-134.708   c4.27-7.167,8.557-13.346,12.574-18.573V42.538C91.132,55.338,30,114.833,30,239.695z"/>
	<path style="fill:#68E1F2;" d="M348.748,124.196v43.876c4.016,5.227,8.303,11.405,12.573,18.573   c15.362,25.786,33.674,70.087,33.674,134.708c0,8.284,6.716,15,15,15s15-6.716,15-15   C424.996,196.491,363.865,136.996,348.748,124.196z"/>
	<path style="fill:#19ABBF;" d="M272.5,321.353c0,8.284,6.716,15,15,15s15-6.716,15-15c0-64.621,18.312-108.922,33.674-134.708   c4.27-7.167,8.557-13.345,12.574-18.573v-43.876C333.632,136.996,272.5,196.491,272.5,321.353z"/>
	<circle style="fill:#FF9A66;" cx="132.343" cy="322.342" r="7.5"/>
	<circle style="fill:#FF9A66;" cx="162.343" cy="302.342" r="7.5"/>
	<path style="fill:#0B7786;" d="M106.249,93.914c-4.142,0-7.5-3.358-7.5-7.5V42.535c0-4.142,3.358-7.5,7.5-7.5s7.5,3.358,7.5,7.5   v43.879C113.749,90.556,110.391,93.914,106.249,93.914z"/>
	<circle style="fill:#FF9A66;" cx="404.843" cy="384" r="7.5"/>
	<path style="fill:#0B7786;" d="M348.748,175.572c-4.143,0-7.5-3.358-7.5-7.5v-43.88c0-4.142,3.357-7.5,7.5-7.5s7.5,3.358,7.5,7.5   v43.88C356.248,172.214,352.891,175.572,348.748,175.572z"/>
</g>















</svg>
