<?xml version="1.0" encoding="iso-8859-1"?>
<!-- Generator: Adobe Illustrator 19.0.0, SVG Export Plug-In . SVG Version: 6.00 Build 0)  -->
<svg xmlns="http://www.w3.org/2000/svg" xmlns:xlink="http://www.w3.org/1999/xlink" version="1.1" id="Capa_1" x="0px" y="0px" viewBox="0 0 455 455" style="enable-background:new 0 0 455 455;" xml:space="preserve" width="512" height="512">
<g>
	<path style="fill:#B2AFAF;" d="M425,87.307H140.414v30H455C455,100.738,441.569,87.307,425,87.307z"/>
	<path style="fill:#C1765B;" d="M284.586,103.807c-4.142,0-7.5,3.357-7.5,7.5v99.333h15v-99.333   C292.086,107.164,288.729,103.807,284.586,103.807z"/>
	<rect y="80.64" style="fill:#FF382E;" width="140.414" height="43.333"/>
	<path style="fill:#FF382E;" d="M140.414,133.973c-4.142,0-7.5-3.357-7.5-7.5V78.14c0-4.143,3.358-7.5,7.5-7.5s7.5,3.357,7.5,7.5   v48.333C147.914,130.615,144.556,133.973,140.414,133.973z"/>
	<path style="fill:#D19884;" d="M330.957,328.524h-46.371c-9.325-17.827-27.983-30-49.495-30h-15.182   c-21.512,0-40.171,12.173-49.495,30h-46.371c-30.837,0-55.836,24.998-55.836,55.836h318.586   C386.793,353.523,361.795,328.524,330.957,328.524z"/>
	<path style="fill:#C1765B;" d="M170.414,103.807c-4.142,0-7.5,3.357-7.5,7.5v99.333h15v-99.333   C177.914,107.164,174.556,103.807,170.414,103.807z"/>
	<rect x="68.207" y="200.64" style="fill:#3F3736;" width="318.586" height="43.333"/>
	<path style="fill:#3F3736;" d="M98.207,253.974c-4.142,0-7.5-3.357-7.5-7.5v-48.333c0-4.143,3.358-7.5,7.5-7.5s7.5,3.357,7.5,7.5   v48.333C105.707,250.616,102.349,253.974,98.207,253.974z"/>
	<path style="fill:#3F3736;" d="M128.207,253.974c-4.142,0-7.5-3.357-7.5-7.5v-48.333c0-4.143,3.358-7.5,7.5-7.5s7.5,3.357,7.5,7.5   v48.333C135.707,250.616,132.349,253.974,128.207,253.974z"/>
	<path style="fill:#C1765B;" d="M170.414,230.474c-4.142,0-7.5,3.357-7.5,7.5V384.36h15V237.974   C177.914,233.831,174.556,230.474,170.414,230.474z"/>
	<path style="fill:#C1765B;" d="M284.586,230.474c-4.142,0-7.5,3.357-7.5,7.5V384.36h15V237.974   C292.086,233.831,288.729,230.474,284.586,230.474z"/>
</g>















</svg>
