<?xml version="1.0" encoding="iso-8859-1"?>
<!-- Generator: Adobe Illustrator 19.0.0, SVG Export Plug-In . SVG Version: 6.00 Build 0)  -->
<svg xmlns="http://www.w3.org/2000/svg" xmlns:xlink="http://www.w3.org/1999/xlink" version="1.1" id="Capa_1" x="0px" y="0px" viewBox="0 0 470 470" style="enable-background:new 0 0 470 470;" xml:space="preserve" width="512" height="512">
<g>
	<rect x="170.74" y="102.5" style="fill:#FF382E;" width="128.51" height="70"/>
	<rect x="140.74" y="222.5" style="fill:#FF382E;" width="188.51" height="70"/>
	<rect x="150.744" y="342.5" style="fill:#DE2F1B;" width="168.506" height="30"/>
	<rect x="110.745" y="342.5" style="fill:#FF382E;" width="50" height="120"/>
	<rect x="309.259" y="342.5" style="fill:#FF382E;" width="49.996" height="120"/>
	<path style="fill:#1C1918;" d="M234.999,60c-4.142,0-7.5-3.358-7.5-7.5v-45c0-4.142,3.358-7.5,7.5-7.5s7.5,3.358,7.5,7.5v45   C242.499,56.642,239.141,60,234.999,60z"/>
	<rect x="235" y="372.5" style="fill:#D19884;" width="74.25" height="90"/>
	<rect x="160.74" y="372.5" style="fill:#C1765B;" width="74.26" height="90"/>
	<polygon style="fill:#3F3736;" points="349.25,282.5 120.74,282.5 90.74,342.5 379.25,342.5  "/>
	<polygon style="fill:#3F3736;" points="319.25,162.5 150.74,162.5 120.74,222.5 349.25,222.5  "/>
	<polygon style="fill:#3F3736;" points="235,42.5 150.74,102.5 319.25,102.5  "/>
	<path style="fill:#3F3736;" d="M339.254,230h-208.51c-15.796,0-29.985-10.026-35.308-24.949c-1.392-3.901,0.643-8.192,4.544-9.583   c3.899-1.394,8.191,0.643,9.583,4.544c3.198,8.965,11.709,14.988,21.18,14.988h208.51c9.472,0,17.984-6.025,21.181-14.992   c1.391-3.901,5.68-5.937,9.583-4.546c3.901,1.391,5.937,5.681,4.546,9.583C369.244,219.971,355.054,230,339.254,230z"/>
	<path style="fill:#3F3736;" d="M309.254,110h-148.51c-15.796,0-29.985-10.026-35.308-24.949c-1.392-3.901,0.643-8.192,4.544-9.583   c3.897-1.394,8.192,0.643,9.583,4.544C142.762,88.977,151.273,95,160.744,95h148.51c9.473,0,17.984-6.025,21.181-14.993   c1.391-3.901,5.679-5.937,9.583-4.546c3.901,1.391,5.937,5.681,4.546,9.583C339.244,99.971,325.054,110,309.254,110z"/>
	<path style="fill:#3F3736;" d="M369.254,350h-268.51c-15.796,0-29.985-10.026-35.308-24.949c-1.392-3.901,0.643-8.192,4.544-9.583   c3.897-1.394,8.192,0.643,9.583,4.544C82.762,328.977,91.273,335,100.744,335h268.51c9.473,0,17.984-6.025,21.181-14.992   c1.391-3.902,5.682-5.938,9.583-4.546c3.902,1.391,5.938,5.681,4.546,9.583C399.244,339.971,385.054,350,369.254,350z"/>
	<path style="fill:#D19884;" d="M309.254,380h-148.51c-4.142,0-7.5-3.358-7.5-7.5s3.358-7.5,7.5-7.5h148.51   c4.142,0,7.5,3.358,7.5,7.5S313.396,380,309.254,380z"/>
	<path style="fill:#FF382E;" d="M397.5,470h-325c-4.142,0-7.5-3.358-7.5-7.5s3.358-7.5,7.5-7.5h325c4.142,0,7.5,3.358,7.5,7.5   S401.642,470,397.5,470z"/>
</g>















</svg>
