<?xml version="1.0" encoding="iso-8859-1"?>
<!-- Generator: Adobe Illustrator 19.0.0, SVG Export Plug-In . SVG Version: 6.00 Build 0)  -->
<svg xmlns="http://www.w3.org/2000/svg" xmlns:xlink="http://www.w3.org/1999/xlink" version="1.1" id="Capa_1" x="0px" y="0px" viewBox="0 0 455.003 455.003" style="enable-background:new 0 0 455.003 455.003;" xml:space="preserve" width="512" height="512">
<g>
	<path style="fill:#FFBC99;" d="M448.41,48.983c8.79,8.79,8.79,23.03,0,31.82l-100.35,96.81l-27.78,10l-27.78-10l124.09-128.63   C425.38,40.193,439.62,40.193,448.41,48.983z"/>
	<path style="fill:#19ABBF;" d="M0,177.612c0,125.64,101.86,227.5,227.5,227.5S455,303.253,455,177.612H0z"/>
	<path style="fill:#19ABBF;" d="M295,412.612H160c-4.142,0-7.5-3.357-7.5-7.5s3.358-7.5,7.5-7.5h135c4.143,0,7.5,3.357,7.5,7.5   S299.143,412.612,295,412.612z"/>
	<circle style="fill:#0B7786;" cx="114.774" cy="319.362" r="7.5"/>
	<circle style="fill:#0B7786;" cx="84.774" cy="289.362" r="7.5"/>
	<path style="fill:#B2AFAF;" d="M243.5,155.111c-4.143,0-7.5-3.357-7.5-7.5c0-9.374,2.707-14.449,4.883-18.527   c1.81-3.394,3.117-5.846,3.117-11.47c0-5.626-1.308-8.078-3.118-11.472c-2.175-4.078-4.882-9.154-4.882-18.529   s2.707-14.451,4.882-18.53c1.811-3.394,3.118-5.846,3.118-11.472c0-4.143,3.357-7.5,7.5-7.5s7.5,3.357,7.5,7.5   c0,9.375-2.707,14.451-4.882,18.53C252.308,79.535,251,81.987,251,87.613c0,5.625,1.308,8.077,3.117,11.471   c2.176,4.079,4.883,9.154,4.883,18.53c0,9.375-2.707,14.45-4.883,18.528c-1.81,3.394-3.117,5.845-3.117,11.469   C251,151.754,247.643,155.111,243.5,155.111z"/>
	<path style="fill:#B2AFAF;" d="M203.5,155.111c-4.143,0-7.5-3.357-7.5-7.5c0-9.374,2.707-14.449,4.883-18.527   c1.81-3.394,3.117-5.846,3.117-11.47c0-5.626-1.308-8.078-3.118-11.472c-2.175-4.078-4.882-9.154-4.882-18.529   s2.707-14.451,4.882-18.53c1.811-3.394,3.118-5.846,3.118-11.472c0-4.143,3.357-7.5,7.5-7.5s7.5,3.357,7.5,7.5   c0,9.375-2.707,14.451-4.882,18.53C212.308,79.535,211,81.987,211,87.613c0,5.625,1.308,8.077,3.117,11.471   c2.176,4.079,4.883,9.154,4.883,18.53c0,9.375-2.707,14.45-4.883,18.528c-1.81,3.394-3.117,5.845-3.117,11.469   C211,151.754,207.643,155.111,203.5,155.111z"/>
</g>















</svg>
