<?xml version="1.0" encoding="iso-8859-1"?>
<!-- Generator: Adobe Illustrator 19.0.0, SVG Export Plug-In . SVG Version: 6.00 Build 0)  -->
<svg xmlns="http://www.w3.org/2000/svg" xmlns:xlink="http://www.w3.org/1999/xlink" version="1.1" id="Capa_1" x="0px" y="0px" viewBox="0 0 450.004 450.004" style="enable-background:new 0 0 450.004 450.004;" xml:space="preserve" width="512" height="512">
<g>
	<rect x="85.672" y="106.384" style="fill:#FF382E;" width="39.96" height="304.67"/>
	<rect x="324.372" y="106.384" style="fill:#FF382E;" width="39.96" height="304.67"/>
	<path style="fill:#3F3736;" d="M364.332,401.054c16.48,0,29.97,13.48,29.97,29.96h-100.9c0-16.48,14.49-29.96,30.97-29.96H364.332z   "/>
	<path style="fill:#3F3736;" d="M125.632,401.054c16.48,0,29.97,13.48,29.97,29.96h-99.9c0-16.48,13.49-29.96,29.97-29.96H125.632z"/>
	<rect x="197.562" y="106.384" style="fill:#3F3736;" width="54.87" height="79.93"/>
	<path style="fill:#3F3736;" d="M25.742,46.464l5.25,15.75c2.61,7.82,11.49,14.22,19.73,14.22h348.56c8.24,0,17.12-6.4,19.72-14.22   l5.25-15.75H25.742z"/>
	<rect x="50.722" y="176.314" style="fill:#DE2F1B;" width="348.56" height="29.96"/>
	<path style="fill:#DE2F1B;" d="M50.722,76.434v24.97c0,8.24,6.74,14.98,14.98,14.98h318.6c8.24,0,14.98-6.74,14.98-14.98v-24.97   H50.722z"/>
	<path style="fill:#3F3736;" d="M414.256,53.967H35.746c-15.796,0-29.985-10.026-35.308-24.949   c-1.392-3.901,0.643-8.192,4.544-9.583c3.901-1.395,8.192,0.643,9.583,4.544c3.198,8.965,11.709,14.988,21.18,14.988h378.51   c9.472,0,17.984-6.025,21.181-14.993c1.391-3.901,5.682-5.937,9.583-4.546c3.902,1.391,5.938,5.681,4.546,9.583   C444.246,43.938,430.056,53.967,414.256,53.967z"/>
</g>















</svg>
